<svg width="61" height="61" viewBox="0 0 61 61" fill="none" xmlns="http://www.w3.org/2000/svg">
<path d="M9.97753 11.0034C11.2643 9.90433 12.5072 8.74804 13.8463 7.71637C17.293 5.06058 21.1346 3.18314 25.4566 2.3149C26.1104 2.18415 26.7768 2.12083 27.4348 2.01664C27.579 1.99416 27.7147 1.93083 27.8359 1.81643C27.4954 1.87159 27.1528 1.92879 26.8123 1.98395C26.8269 1.77353 26.616 1.76944 25.7386 1.99416C25.841 2.00029 25.9433 2.00438 26.0457 2.01051C26.0478 2.02276 26.0499 2.03502 26.0499 2.04728C25.4002 2.1862 24.7484 2.32716 24.0988 2.46608C24.0862 2.44156 24.0737 2.41909 24.0612 2.39457C24.3829 2.24953 24.692 2.03911 25.0304 1.96965C27.886 1.38129 30.7729 1.20151 33.6828 1.40989C38.22 1.73267 42.4898 2.94412 46.3565 5.2996C50.4612 7.80012 53.8182 11.0749 56.2622 15.173C56.6967 15.9023 57.1458 16.6459 57.4989 17.4304C58.9402 20.6398 59.8782 23.9739 60.0892 27.4856C60.1142 27.9065 60.1017 28.3273 60.1038 28.7502C60.1038 28.8258 60.0933 28.9014 60.039 28.9831C60.0286 28.8932 60.0098 28.8033 60.0077 28.7134C59.9764 26.8666 59.7654 25.0321 59.2557 23.2609C58.8149 21.7348 58.1987 20.2537 57.6117 18.7706C57.2294 17.8043 56.7636 16.8686 56.3228 15.8901C56.0199 16.1536 56.233 16.3129 56.3291 16.4784C56.4293 16.65 56.5442 16.8114 56.6529 16.9769C56.6194 16.9953 56.5881 17.0137 56.5547 17.0321C56.3207 16.6133 56.0868 16.1945 55.8528 15.7757C55.9531 15.7185 56.0262 15.6756 56.162 15.5959C54.7227 13.4488 53.133 11.4467 51.2195 9.70003C52.2974 10.9115 53.3774 12.125 54.4553 13.3364C54.4219 13.365 54.3884 13.3936 54.3571 13.4222C54.307 13.3691 54.2506 13.318 54.2046 13.2588C51.8044 10.1372 48.8381 7.65508 45.3496 5.7613C45.0968 5.62442 44.8482 5.47324 44.5788 5.38131C44.2466 5.26691 43.8936 5.20358 43.551 5.11982C43.315 5.06262 43.0726 5.01768 42.8429 4.94209C42.5755 4.85424 42.3123 4.74597 42.0553 4.63361C41.4433 4.36599 40.8333 4.09224 40.2045 3.81236C40.2505 3.7143 40.2776 3.65301 40.309 3.58763C40.1523 3.57129 40.0082 3.57742 39.8786 3.53861C39.5758 3.44872 39.2854 3.31389 38.9783 3.24239C38.5313 3.14024 38.1323 2.91143 37.6038 3.05443C37.1651 3.17292 36.6512 3.04218 36.1729 2.99519C35.6444 2.94412 35.1159 2.87057 34.5915 2.7909C34.3409 2.75208 34.0985 2.64177 33.8479 2.6193C33.4468 2.58457 33.0436 2.60295 32.6405 2.5907C32.394 2.58252 32.1475 2.53962 31.901 2.54371C31.69 2.54779 31.4351 2.52941 31.2743 2.63155C30.8043 2.93595 30.28 2.891 29.7703 2.92982C22.9394 3.4671 17.0758 6.06161 12.2336 10.8196C12.1208 10.9299 11.9161 11.0095 12.0268 11.2751C12.0581 11.3487 11.7573 11.6735 11.609 11.6735C11.4168 11.6714 11.3583 11.7613 11.2789 11.8533C8.07868 15.5346 5.78502 19.6633 4.75726 24.4254C4.16191 27.1792 4.00524 29.9555 4.30396 32.7543C4.80531 37.4632 6.40962 41.7779 9.17955 45.6655C10.9155 48.1007 13.1256 50.0823 15.5446 51.8556C16.6037 52.6319 17.598 53.5083 18.8096 54.064C21.4458 55.2713 24.1113 56.4113 26.9982 56.9363C27.4975 57.0262 28.0072 57.0507 28.5148 57.1018C29.177 57.1712 29.8392 57.2693 30.5035 57.2979C31.5083 57.3408 32.5214 57.398 33.522 57.3367C35.7572 57.1998 37.9297 56.7014 40.0792 56.1089C40.3737 56.0272 40.6348 55.7964 40.9294 55.7514C42.4564 55.5165 43.7641 54.7606 45.0697 54.0456C46.3899 53.3224 47.6307 52.4582 48.9029 51.6533C48.9927 51.5961 49.0763 51.5267 49.1807 51.4899C47.6996 52.781 45.993 53.7473 44.2926 54.7259C44.3072 54.7524 44.3218 54.781 44.3344 54.8076C44.9255 54.5175 45.5167 54.2274 46.1079 53.9353C46.1141 53.9455 46.1225 53.9557 46.1288 53.9639C46.0389 54.0211 45.9491 54.0803 45.8572 54.1334C43.1813 55.6493 40.2985 56.6135 37.3134 57.3837C34.8944 58.0068 32.4545 58.0109 30 58.0354C29.8079 58.0374 29.6157 58.0354 29.3671 58.0354C30.6539 58.3929 34.1111 58.3439 36.9082 57.7555C39.3752 57.2386 41.7441 56.4399 44.0628 55.4552C43.8059 55.5839 43.5531 55.7167 43.292 55.8372C43.0058 55.97 42.7154 56.0926 42.4251 56.2192C42.1472 56.3398 41.8673 56.4562 41.602 56.6237C41.6668 56.6115 41.7336 56.6094 41.7942 56.5849C42.7217 56.2049 43.6972 55.9087 44.5662 55.4266C47.2589 53.9332 49.8638 52.3071 51.9945 50.0639C52.0175 50.0415 52.0446 50.021 52.1157 50.0455C51.6645 50.495 51.2237 50.9587 50.7558 51.3918C50.2774 51.8331 49.7844 52.2601 49.2747 52.6646C48.765 53.0691 48.2323 53.449 47.6934 53.8168C47.1544 54.1824 46.5946 54.5175 46.0222 54.8811C48.1738 54.2131 54.4845 48.8504 56.726 44.6747C59.1512 40.1517 60.3064 36.4724 60.4171 30.4274C60.6866 32.0373 60.6114 33.5735 60.4213 35.1037C60.0035 38.452 59.0259 41.6369 57.4759 44.6543C57.4028 44.7973 57.2566 44.9812 57.6159 45.0384C57.5031 45.2304 57.4153 45.4204 57.29 45.5859C56.7845 46.2641 56.2622 46.9301 55.7609 47.6083C55.435 48.0476 55.1655 48.5297 54.8125 48.9444C54.1837 49.686 53.509 50.3867 52.8614 51.1119C52.5418 51.4674 52.2661 51.8658 51.9235 52.1967C50.2711 53.8025 48.3242 55.02 46.3502 56.2008C45.9094 56.4644 45.406 56.6237 44.9381 56.8444C44.2675 57.161 43.6199 57.5287 42.9348 57.8107C40.3403 58.875 37.6393 59.5512 34.8401 59.8331C25.9517 60.7239 18.116 58.3112 11.398 52.5604C9.04586 50.5461 7.0175 48.2274 5.45706 45.5491C4.91393 44.6175 4.30814 43.7186 3.80679 42.7666C3.42034 42.0332 3.22189 41.2038 2.81037 40.4888C2.4072 39.7881 2.22964 39.0322 1.98315 38.2906C1.73247 37.5327 1.54029 36.7584 1.3502 35.9842C1.28753 35.7247 1.36691 35.4265 1.28335 35.1772C1.01179 34.3723 0.924054 33.5592 0.976277 32.7175C0.9909 32.4663 0.836319 32.2089 0.792451 31.9494C0.637869 31.0117 0.642047 30.074 0.804984 29.1363C0.855119 28.8421 0.957477 28.5071 0.865564 28.2497C0.642047 27.6225 0.832141 27.0219 0.888542 26.4192C0.949121 25.7737 1.17055 25.1424 1.26037 24.4969C1.71994 21.169 2.90228 18.0821 4.59015 15.1853C5.33381 13.9084 6.23623 12.7195 7.09061 11.508C7.26608 11.2588 7.55854 11.0933 7.77579 10.8686C7.96797 10.6704 8.12882 10.4416 8.3022 10.2292C8.51109 10.0024 8.71999 9.77562 8.92888 9.54681C9.03333 9.46306 9.14822 9.38951 9.24222 9.29554C13.652 4.96047 18.8952 2.07792 24.9928 0.717343C27.815 0.0881257 30.6789 -0.0977814 33.5721 0.0738234C36.9353 0.274029 40.24 0.84196 43.2774 2.2577C45.8175 3.44055 48.2825 4.8093 50.5009 6.5662C54.4992 9.73068 57.361 13.6898 59.3267 18.3007C59.6254 19.0014 59.8803 19.7205 60.1289 20.4396C60.3273 21.0116 60.5028 21.5918 60.6553 22.1782C60.7075 22.3784 60.6636 22.6051 60.6344 22.8258C60.1581 21.1914 59.6944 19.5571 58.9423 18.0045C58.9047 18.0494 58.8755 18.0842 58.8943 18.0617C58.1214 16.7052 57.3965 15.2976 56.5401 13.9738C55.9384 13.0443 55.1593 12.223 54.4595 11.3548C54.3989 11.2792 54.3613 11.1811 54.2923 11.1178C54.1482 10.985 53.9853 10.8727 53.8411 10.7419C53.7346 10.6459 53.557 10.6153 53.6155 10.3722C53.6406 10.2721 53.4045 10.0943 53.2646 9.97583C52.9847 9.74089 52.663 9.54886 52.4019 9.29554C50.7641 7.70411 49.0366 6.21482 47.0207 5.09735C43.6346 3.21991 40.0395 1.90632 36.175 1.33022C33.7643 0.970664 31.3432 0.874646 28.9221 1.08915C24.7088 1.45892 20.7774 2.71531 17.151 4.85833C17.1113 4.8808 17.0737 4.90531 17.0382 4.93187C17.0214 4.94413 17.0131 4.96456 16.9421 5.06262C18.1056 4.50082 19.1626 3.91246 20.3032 3.51613C20.322 3.55495 20.3408 3.59581 20.3617 3.63462C20.2614 3.68774 20.1611 3.7429 20.0588 3.79193C19.3276 4.14331 18.6174 4.54985 17.8591 4.82769C16.9483 5.16272 16.2444 5.79194 15.4338 6.26998C13.3428 7.49982 11.6926 9.21995 10.0005 10.8992C9.97753 10.9217 9.97126 10.9564 9.95664 10.9871C9.91904 11.0116 9.87517 11.0279 9.84802 11.0606C8.69701 12.3211 7.66507 13.6653 6.82114 15.1424C6.79398 15.1893 6.79189 15.2506 6.77936 15.3037C6.90261 15.2179 6.98199 15.1117 7.05719 15.0034C7.67969 14.1189 8.29384 13.2261 8.92888 12.3497C9.25893 11.8839 9.62659 11.4488 9.97753 11.0034ZM43.904 56.0517C42.517 56.5359 40.9503 57.1202 39.3564 57.6288C37.7521 58.1396 36.0851 58.399 34.4161 58.6156C37.8649 58.5073 41.0443 57.4695 43.904 56.0517ZM32.5569 1.62439C31.2179 1.67342 29.8434 1.43032 28.5587 1.83277C29.8622 1.76536 31.2095 1.69385 32.5569 1.62439ZM34.4683 2.49263C33.7434 2.41909 33.0186 2.34554 32.2645 2.26791C32.3814 2.48651 33.616 2.60499 34.4683 2.49263ZM36.6408 2.72961C36.1206 2.48446 35.847 2.48242 35.4229 2.66628C35.8303 2.68875 36.2355 2.70918 36.6408 2.72961ZM30.3364 2.30264C30.3364 2.3292 30.3343 2.35576 30.3343 2.38232C30.6873 2.38232 31.0424 2.38232 31.3955 2.38232C31.3955 2.35576 31.3934 2.3292 31.3934 2.30264C31.0424 2.30264 30.6894 2.30264 30.3364 2.30264ZM41.7462 4.24545C41.7712 4.19847 41.7984 4.15148 41.8235 4.10654C41.4809 3.97988 41.1362 3.85322 40.7936 3.72655C40.7769 3.76537 40.7623 3.80418 40.7456 3.843C41.0798 3.97579 41.414 4.11062 41.7462 4.24545ZM43.7871 5.09122C43.7954 5.06466 43.8038 5.03811 43.8142 5.01359C43.5301 4.88489 43.2627 4.70102 42.9306 4.71328C42.9201 4.74188 42.9118 4.77253 42.9013 4.80113C43.1959 4.89714 43.4904 4.9952 43.7871 5.09122ZM47.7561 6.83178C47.7832 6.7991 47.8083 6.76641 47.8354 6.73372C47.5973 6.5519 47.3591 6.36804 47.1189 6.18622C47.0918 6.21891 47.0667 6.2516 47.0395 6.28428C47.2777 6.46815 47.5179 6.64996 47.7561 6.83178Z" fill="#214D4D"/>
<path d="M44.0628 36.2027C43.0162 36.2027 42.0303 36.2109 41.0443 36.1925C40.9377 36.1904 40.7936 36.0638 40.733 35.9596C40.2421 35.1118 39.7512 34.264 39.2937 33.3978C39.1308 33.0893 38.9365 32.9463 38.5856 33.0014C38.454 33.0219 38.3182 33.0055 38.1406 33.0055C38.1406 34.0801 38.1406 35.1261 38.1406 36.1884C37.0586 36.1884 36.0204 36.1884 34.9529 36.1884C34.9467 36.0597 34.9362 35.9432 34.9362 35.8248C34.9362 31.933 34.9383 28.0433 34.9279 24.1516C34.9279 23.839 35.001 23.7266 35.3373 23.7368C36.1415 23.7614 36.9479 23.743 37.7521 23.745C37.8628 23.745 37.9756 23.7532 38.1239 23.7614C38.1239 25.8921 38.1239 28.0045 38.1239 30.1679C38.4373 30.1679 38.7172 30.1843 38.9908 30.1577C39.0702 30.1495 39.1538 30.0229 39.2018 29.933C39.6092 29.1792 40.0019 28.4192 40.4176 27.6694C40.4761 27.5632 40.6202 27.4345 40.7247 27.4325C41.6877 27.4161 42.6507 27.4243 43.6158 27.4263C43.645 27.4263 43.6763 27.4468 43.7307 27.4652C43.6722 27.5796 43.622 27.6878 43.5656 27.792C42.9076 28.979 42.2517 30.1679 41.5832 31.3508C41.483 31.5285 41.4871 31.6593 41.5874 31.8329C42.352 33.1649 43.1061 34.503 43.8623 35.8391C43.9249 35.9412 43.9792 36.0474 44.0628 36.2027Z" fill="#214D4D"/>
<path d="M17.3871 29.7431C17.3871 29.1691 17.3766 28.6481 17.3975 28.1292C17.4017 28.0352 17.5228 27.9004 17.621 27.8657C18.9851 27.3856 20.3951 27.2405 21.8344 27.3427C22.2606 27.3733 22.6888 27.4428 23.1024 27.5511C24.2116 27.8412 24.8822 28.6011 24.9114 29.8024C24.9636 31.9168 24.926 34.0332 24.926 36.2028C24.5981 36.2028 24.2743 36.2028 23.9505 36.2028C23.8816 36.2028 23.8147 36.2028 23.7458 36.2028C23.3489 36.2028 22.9457 36.2457 22.5572 36.1905C22.1102 36.1272 22.1833 35.5838 21.8574 35.355C21.3184 35.7983 20.7126 36.1456 19.9982 36.2253C19.5303 36.2784 19.0415 36.309 18.5798 36.2375C17.6315 36.0925 16.9818 35.4102 16.8753 34.4602C16.8147 33.925 16.8105 33.3693 16.8753 32.834C16.9964 31.8126 17.8383 31.0955 18.9997 30.9648C19.4259 30.9178 19.8583 30.9076 20.2865 30.8974C20.7502 30.8871 21.214 30.8953 21.6715 30.8953C21.8657 30.2988 21.6443 29.8841 21.0552 29.8105C20.5518 29.7492 20.04 29.7492 19.5303 29.7431C18.8305 29.737 18.1307 29.7431 17.3871 29.7431ZM21.7383 32.3376C21.4208 32.3866 21.1534 32.4214 20.8902 32.4724C20.1591 32.6134 19.898 32.9852 20.0881 33.688C20.134 33.8575 20.3387 34.0986 20.485 34.1088C20.8568 34.1354 21.237 34.0557 21.613 34.0005C21.6631 33.9924 21.7321 33.8882 21.7341 33.8289C21.7425 33.3427 21.7383 32.8565 21.7383 32.3376Z" fill="#214D4D"/>
<path d="M33.2943 29.6634C33.1335 29.6634 32.9998 29.6634 32.8682 29.6634C31.69 29.6634 30.5097 29.6593 29.3316 29.6654C28.9159 29.6675 28.7926 29.8125 28.8261 30.1884C28.8553 30.499 29.0726 30.5582 29.3274 30.5623C29.8601 30.5684 30.3928 30.5582 30.9254 30.5705C31.2534 30.5786 31.5835 30.595 31.9072 30.6399C32.8577 30.7747 33.4948 31.3263 33.6285 32.264C33.7267 32.9484 33.7476 33.6614 33.6745 34.3478C33.5617 35.4183 32.7742 35.927 31.7819 36.1129C30.0794 36.4295 28.3811 36.356 26.6974 35.9392C26.3945 35.8636 26.2817 35.7268 26.3047 35.4101C26.3381 34.9484 26.3131 34.4826 26.3131 33.9719C26.4718 33.9719 26.6034 33.9719 26.735 33.9719C27.9926 33.9719 29.2522 33.974 30.5097 33.9678C30.9359 33.9658 30.9965 33.8861 31.0069 33.5143C31.0153 33.1956 30.8523 33.0792 30.5515 33.073C29.8162 33.0587 29.0767 33.0792 28.3456 33.0117C26.9941 32.8871 26.2775 32.1946 26.1439 30.8748C26.0916 30.3519 26.1167 29.8085 26.194 29.2875C26.3151 28.4581 26.8311 27.8677 27.6521 27.6593C28.3895 27.4734 29.1686 27.3304 29.9227 27.3508C30.9338 27.3794 31.9386 27.5817 32.9454 27.7145C33.2087 27.7492 33.3194 27.8799 33.3006 28.1639C33.2734 28.646 33.2943 29.1322 33.2943 29.6634Z" fill="#214D4D"/>
<path d="M51.6039 29.6634C51.3344 29.6634 51.1088 29.6634 50.8853 29.6634C49.8074 29.6634 48.7316 29.6593 47.6537 29.6654C47.2484 29.6675 47.1607 29.7512 47.1586 30.0903C47.1544 30.4438 47.2589 30.552 47.6537 30.5643C48.4684 30.5888 49.2872 30.5684 50.0977 30.6338C51.2508 30.7298 51.9444 31.4652 52.0133 32.595C52.0363 32.9811 52.0363 33.3713 52.0342 33.7574C52.0279 35.1241 51.4681 35.8514 50.0936 36.1129C48.3932 36.4377 46.6907 36.356 45.0091 35.9351C44.7187 35.8636 44.6038 35.7247 44.6289 35.4244C44.6581 35.0832 44.6561 34.7359 44.6289 34.3948C44.6038 34.072 44.6895 33.9555 45.053 33.9617C46.323 33.9862 47.5931 33.9739 48.8611 33.9658C49.2517 33.9637 49.3269 33.8575 49.3227 33.4795C49.3186 33.1956 49.1723 33.0791 48.9008 33.0771C48.3785 33.073 47.8563 33.0955 47.3362 33.0648C46.8996 33.0383 46.4546 32.9933 46.0327 32.881C45.1783 32.6542 44.6289 32.0822 44.514 31.2303C44.4304 30.6011 44.4346 29.9433 44.5119 29.312C44.6393 28.2905 45.3579 27.7471 46.3293 27.5367C48.0234 27.171 49.705 27.2997 51.3657 27.7573C51.4618 27.7839 51.5872 27.9228 51.5893 28.0147C51.6164 28.5439 51.6039 29.0771 51.6039 29.6634Z" fill="#214D4D"/>
<path d="M16.0083 27.4182C16.0083 28.2558 16.0083 29.0485 16.0083 29.8922C15.5174 29.8922 15.0328 29.9065 14.5503 29.886C14.2808 29.8758 14.1972 29.9637 14.2014 30.2252C14.216 31.0669 14.2014 31.9106 14.2077 32.7543C14.216 33.5694 14.3455 33.7063 15.1728 33.8064C15.4193 33.837 15.6678 33.8534 15.9373 33.8799C15.9373 34.6501 15.9373 35.3999 15.9373 36.1517C15.9227 36.1639 15.906 36.1905 15.8893 36.1905C14.9492 36.1721 14.005 36.213 13.0734 36.119C11.8075 35.9903 11.114 35.2017 11.0743 33.8779C11.0408 32.7706 11.0993 31.6634 11.116 30.5541C11.1181 30.3559 11.116 30.1557 11.116 29.9106C10.6732 29.9106 10.2387 29.9106 9.74987 29.9106C9.74987 29.2507 9.7436 28.6337 9.75823 28.0188C9.76031 27.9555 9.87312 27.8656 9.95459 27.837C10.2721 27.7206 10.5917 27.6021 10.9197 27.5224C11.1766 27.4591 11.2915 27.3344 11.3249 27.0791C11.4064 26.4642 11.5213 25.8554 11.6049 25.2405C11.6341 25.0239 11.7177 24.934 11.9495 24.9381C12.595 24.9504 13.2426 24.9524 13.8881 24.9381C14.1554 24.932 14.2119 25.0423 14.2077 25.2752C14.1951 25.884 14.2139 26.4948 14.1993 27.1056C14.1931 27.3549 14.2808 27.4346 14.5335 27.4264C15.0203 27.406 15.5049 27.4182 16.0083 27.4182Z" fill="#214D4D"/>
<path d="M20.5894 3.34042C21.4458 3.03602 22.2292 2.75819 23.0982 2.44971C22.4381 2.98495 20.9925 3.50998 20.5894 3.34042Z" fill="#214D4D"/>
<path d="M8.9289 9.54684C8.72 9.7736 8.51111 10.0024 8.30222 10.2292C8.22284 10.2823 8.14346 10.3354 8.06408 10.3906C8.05154 10.3783 8.0411 10.366 8.02856 10.3538C8.36906 9.97585 8.70747 9.59791 9.04797 9.21997C9.0605 9.2261 9.07095 9.23427 9.08348 9.2404C9.03335 9.34459 8.98112 9.44469 8.9289 9.54684Z" fill="#214D4D"/>
<path d="M46.5382 53.6655C47.1419 53.2631 47.7456 52.8606 48.3493 52.4602C48.3639 52.4806 48.3786 52.5031 48.3932 52.5235C47.7895 52.9239 47.1837 53.3264 46.58 53.7268C46.5654 53.7064 46.5528 53.686 46.5382 53.6655Z" fill="#214D4D"/>
</svg>
